<?xml version="1.0" encoding="utf-8"?>
<!-- Generator: Adobe Illustrator 25.4.1, SVG Export Plug-In . SVG Version: 6.00 Build 0)  -->
<svg version="1.1" id="レイヤー_1" xmlns="http://www.w3.org/2000/svg" xmlns:xlink="http://www.w3.org/1999/xlink" x="0px" y="0px" viewBox="0 0 283.465 283.465" enable-background="new 0 0 283.465 283.465" xml:space="preserve">
	<rect id="logobg" x="0.218" y="150.131" fill="#E60020" width="283.465" height="39.685"/>
	<polygon fill="#FFFFFF" points="26.586,164.523 17.972,164.523 17.972,168.377 25.514,168.377 25.514,171.402 17.972,171.402 17.972,178.608 14.392,178.608 14.392,161.482 26.586,161.482 "/>
	<polygon fill="#FFFFFF" points="85.223,178.608 81.277,178.608 73.6,166.406 73.534,166.406 73.534,178.608 69.852,178.608 69.852,161.482 74.006,161.482 81.485,173.415 81.557,173.415 81.557,161.482 85.223,161.482 "/>
	<path fill="#FFFFFF" d="M95.637,175.973c2.162,0,3.695-1.106,4.146-3.214h3.901c-0.793,3.712-3.442,6.298-8.108,6.298c-4.992,0-8.56-3.07-8.56-8.973c0-5.985,3.775-9.032,8.596-9.032c5.595,0,7.865,3.535,8.072,6.037h-3.901c-0.326-1.032-0.919-2.942-4.146-2.942c-1.857,0-4.621,1.132-4.621,5.971C91.016,173.198,92.34,175.973,95.637,175.973"/>
	<rect x="105.233" y="161.482" fill="#FFFFFF" width="3.568" height="17.126"/>
	<path fill="#FFFFFF" d="M122.459,161.482h-4.766l-6.992,17.126h4.309l1.377-3.518h7.291l1.252,3.518h4.459L122.459,161.482zM117.496,172.133l2.527-6.764h0.028l2.472,6.764H117.496z"/>
	<polygon fill="#FFFFFF" points="142.324,178.608 130.24,178.608 130.24,161.482 133.822,161.482 133.822,175.499 142.324,175.499 "/>
	<polygon fill="#FFFFFF" points="180.642,178.608 167.644,178.608 167.644,161.482 180.259,161.482 180.259,164.523 171.165,164.523 171.165,168.119 179.505,168.119 179.505,171.136 171.165,171.136 171.165,175.596 180.642,175.596 "/>
	<path fill="#FFFFFF" d="M193.349,171.862c1.99-0.795,3.197-1.392,3.197-5.003c0-2.267-1.379-5.377-5.936-5.377h-8.646v17.126h3.504v-6.716h3.701c0,0,3.09,6.431,3.162,6.716l4.498-0.043C196.56,178.472,193.349,171.862,193.349,171.862 M189.665,169.023h-4.197v-4.571h4.457c2.102,0,2.511,1.325,2.511,2.233C192.436,168.377,191.528,169.023,189.665,169.023"/>
	<polygon fill="#FFFFFF" points="208.4,178.608 203.146,178.608 196.37,161.482 201.027,161.482 205.757,174.459 205.8,174.459 210.575,161.482 215.058,161.482 "/>
	<polygon fill="#FFFFFF" points="253.233,178.608 240.238,178.608 240.238,161.482 252.817,161.482 252.817,164.523 243.752,164.523 243.752,168.119 252.098,168.119 252.098,171.136 243.752,171.136 243.752,175.596 253.233,175.596 "/>
	<path fill="#FFFFFF" d="M262.088,179.057c-6.908,0-8.062-3.584-8.062-5.715h3.766c0.016,0.959,0.551,2.769,3.992,2.769c1.885,0,3.953-0.409,3.953-2.222c0-1.325-1.439-1.689-3.424-2.102l-2.02-0.447c-3.053-0.652-5.988-1.255-5.988-5.023c0-1.92,1.133-5.265,7.256-5.265c5.772,0,7.324,3.415,7.348,5.517h-3.775c-0.117-0.76-0.434-2.586-3.873-2.586c-1.488,0-3.283,0.524-3.283,2.066c0,1.333,1.211,1.645,1.984,1.786l4.586,1.023c2.609,0.576,4.963,1.52,4.963,4.602C269.51,178.608,263.719,179.057,262.088,179.057"/>
	<path fill="#FFFFFF" d="M61.643,161.346h-4.766l-7,17.107h4.315l1.369-3.514h7.308l1.25,3.514h4.467L61.643,161.346zM56.678,171.995l2.533-6.782h0.028l2.466,6.782H56.678z"/>
	<polygon fill="#FFFFFF" points="48.319,178.453 44.367,178.453 36.696,166.255 36.636,166.255 36.636,178.453 32.947,178.453 32.947,161.346 37.103,161.346 44.583,173.265 44.649,173.265 44.649,161.346 48.319,161.346 "/>
	<rect x="27.71" y="161.346" fill="#FFFFFF" width="3.559" height="17.106"/>
	<path fill="#FFFFFF" d="M159.123,178.914c-6.906,0-8.068-3.595-8.068-5.716h3.762c0.018,0.962,0.559,2.775,4.002,2.775c1.881,0,3.943-0.43,3.943-2.233c0-1.321-1.432-1.695-3.434-2.098l-1.99-0.46c-3.074-0.646-6.008-1.261-6.008-5.03c0-1.907,1.117-5.26,7.264-5.26c5.771,0,7.338,3.431,7.35,5.533h-3.781c-0.119-0.759-0.445-2.592-3.863-2.592c-1.5,0-3.283,0.512-3.283,2.062c0,1.35,1.197,1.637,1.979,1.799l4.582,1c2.609,0.597,4.965,1.533,4.965,4.615C166.541,178.453,160.756,178.914,159.123,178.914"/>
	<path fill="#FFFFFF" d="M230.256,175.812c2.154,0,3.666-1.107,4.127-3.199h3.904c-0.787,3.705-3.447,6.302-8.111,6.302c-5,0-8.562-3.077-8.562-8.993c0-5.98,3.779-9.028,8.615-9.028c5.576,0,7.852,3.533,8.059,6.046h-3.904c-0.312-1.036-0.914-2.942-4.127-2.942c-1.883,0-4.645,1.129-4.645,5.968C225.611,173.041,226.938,175.812,230.256,175.812"/>
	<rect x="216.487" y="161.346" fill="#FFFFFF" width="3.569" height="17.106"/>
	<path fill="#E60020" d="M52.73,97.041c-4.498-1.447-10.097-2.301-16.162-2.301c-6.069,0-11.666,0.854-16.164,2.301C8.44,100.887,0.218,108.875,0.218,118.105c0,12.986,16.273,23.515,36.35,23.515c20.07,0,36.344-10.529,36.344-23.515C72.912,108.875,64.694,100.89,52.73,97.041 M36.569,131.509c-2.996,0-5.443-5.889-5.586-13.291c1.801,0.162,3.67,0.249,5.586,0.249c1.914,0,3.782-0.087,5.586-0.249C42.008,125.62,39.562,131.509,36.569,131.509 M31.36,112.424c0.816-5.195,2.84-8.875,5.209-8.875c2.366,0,4.389,3.68,5.205,8.875c-1.664,0.149-3.408,0.233-5.205,0.233C34.769,112.657,33.027,112.573,31.36,112.424M44.955,112.031c-1.215-8.154-4.51-14-8.387-14c-3.879,0-7.176,5.846-8.392,14c-7.382-1.152-12.544-3.775-12.544-6.831c0-4.118,9.373-7.456,20.936-7.456c11.561,0,20.933,3.338,20.933,7.456C57.502,108.256,52.34,110.879,44.955,112.031 M5.524,117.245c0-3.982,1.532-7.712,4.205-10.922c-0.029,0.223-0.047,0.447-0.047,0.673c0,5.009,7.523,9.265,18.01,10.829c-0.008,0.379-0.014,0.758-0.014,1.141c0,9.311,2.582,17.197,6.152,19.916C17.966,137.912,5.524,128.598,5.524,117.245M39.304,138.882c3.571-2.719,6.151-10.604,6.151-19.916c0-0.383-0.004-0.762-0.012-1.141c10.485-1.564,18.008-5.82,18.008-10.829c0-0.226-0.018-0.45-0.047-0.673c2.672,3.21,4.205,6.94,4.205,10.922C67.61,128.598,55.166,137.912,39.304,138.882"/>
	<polygon fill="#E60020" points="111.68,101.441 82.903,101.441 82.903,107.805 93.526,107.805 93.524,134.937 101.059,134.937 101.057,107.805 111.68,107.805 "/>
	<path fill="#E60020" d="M131.12,100.437c-9.805,0-17.752,7.948-17.752,17.75c0,9.803,7.947,17.753,17.752,17.753c9.803,0,17.75-7.95,17.75-17.753C148.869,108.384,140.923,100.437,131.12,100.437 M139.819,123.562c-1.15,2.936-3.775,5.132-6.953,5.693c-0.565,0.1-1.152,0.154-1.746,0.154c-0.594,0-1.184-0.054-1.746-0.154c-3.178-0.561-5.803-2.757-6.953-5.693c-0.655-1.662-1.018-3.477-1.018-5.376c0-1.896,0.363-3.71,1.018-5.375c1.15-2.931,3.775-5.128,6.953-5.689c0.562-0.103,1.152-0.157,1.746-0.157c0.594,0,1.181,0.054,1.746,0.157c3.178,0.561,5.803,2.758,6.953,5.689c0.656,1.665,1.016,3.479,1.016,5.375C140.835,120.085,140.475,121.9,139.819,123.562"/>
	<polygon fill="#E60020" points="148.988,101.441 157.865,101.441 166.152,115.843 174.444,101.441 183.313,101.441 169.918,122.543 169.918,134.937 162.387,134.937 162.387,122.543 "/>
	<path fill="#E60020" d="M183.455,118.188c0-9.802,7.947-17.751,17.754-17.751c9.799,0,17.746,7.949,17.746,17.751c0,9.801-7.947,17.753-17.746,17.753C191.402,135.941,183.455,127.989,183.455,118.188 M201.209,129.412c0.592,0,1.178-0.057,1.744-0.155c3.18-0.56,5.799-2.759,6.953-5.692c0.654-1.664,1.014-3.477,1.014-5.377c0-1.896-0.359-3.711-1.014-5.375c-1.154-2.933-3.773-5.13-6.953-5.691c-0.566-0.099-1.152-0.155-1.744-0.155c-0.596,0-1.184,0.056-1.748,0.155c-3.18,0.561-5.805,2.758-6.953,5.691c-0.654,1.664-1.018,3.479-1.018,5.375c0,1.9,0.363,3.713,1.018,5.377c1.148,2.933,3.773,5.132,6.953,5.692C200.026,129.355,200.613,129.412,201.209,129.412"/>
	<path fill="#E60020" d="M272.551,127.542l-14.262,0.002l-2.744,7.368h-8.375l13.564-33.491h9.375l13.572,33.491h-8.377l-2.754-7.368V127.542z M270.358,121.679l-4.934-13.229l-4.941,13.229H270.358z"/>
	<polygon fill="#E60020" points="249.379,101.441 220.602,101.441 220.602,107.805 231.225,107.805 231.225,134.937 238.76,134.937 238.756,107.805 249.379,107.805 "/>
</svg>
