<?xml version="1.0" encoding="utf-8"?>
<!-- Generator: Adobe Illustrator 25.4.1, SVG Export Plug-In . SVG Version: 6.00 Build 0)  -->
<svg version="1.1" id="Layer_1" xmlns="http://www.w3.org/2000/svg" xmlns:xlink="http://www.w3.org/1999/xlink" x="0px" y="0px"
	 viewBox="0 0 34.011 33.7" style="enable-background:new 0 0 34.011 33.7;" xml:space="preserve">
<path d="M15.977,26.147c0.204,0.206,0.461,0.345,0.746,0.402c0.011,0.002,0.022,0.004,0.034,0.006
	c0.028,0.005,0.063,0.011,0.104,0.015c0.048,0.005,0.096,0.007,0.144,0.007c0.048,0,0.096-0.002,0.145-0.007
	c0.041-0.004,0.077-0.01,0.103-0.015c0.012-0.002,0.024-0.004,0.036-0.006c0.284-0.057,0.541-0.195,0.743-0.399l7.919-7.918
	c0.273-0.273,0.423-0.636,0.423-1.022s-0.15-0.749-0.423-1.022c-0.273-0.273-0.636-0.423-1.022-0.423
	c-0.386,0-0.749,0.15-1.022,0.423l-5.456,5.455V2.435c0-0.797-0.648-1.445-1.445-1.445s-1.445,0.648-1.445,1.445v19.207
	l-5.454-5.455c-0.273-0.273-0.636-0.423-1.022-0.423c-0.386,0-0.749,0.15-1.022,0.423c-0.273,0.273-0.423,0.636-0.423,1.022
	c0,0.386,0.15,0.749,0.423,1.022L15.977,26.147z"/>
<path d="M32.566,22.122c-0.797,0-1.445,0.648-1.445,1.445v6.252H2.891v-6.252c0-0.797-0.648-1.445-1.445-1.445S0,22.77,0,23.567
	v7.698c0,0.797,0.648,1.445,1.445,1.445h31.12c0.797,0,1.445-0.648,1.445-1.445v-7.698C34.011,22.77,33.363,22.122,32.566,22.122z"
	/>
</svg>
