<?xml version="1.0" encoding="utf-8"?>
<!-- Generator: Adobe Illustrator 23.0.0, SVG Export Plug-In . SVG Version: 6.00 Build 0)  -->
<svg version="1.1" id="圖層_1" xmlns="http://www.w3.org/2000/svg" xmlns:xlink="http://www.w3.org/1999/xlink" x="0px" y="0px"
	 viewBox="0 0 49.43 36.245" style="enable-background:new 0 0 49.43 36.245;" xml:space="preserve">
<path d="M49.038,17.555c-0.349-0.508-8.747-12.432-24.323-12.432S0.741,17.047,0.392,17.555L0,18.123l0.392,0.566
	c0.349,0.508,8.747,12.434,24.323,12.434s23.974-11.926,24.323-12.434l0.392-0.566L49.038,17.555z M24.715,29.123
	c-12.619,0-20.389-8.676-22.245-11.002c1.851-2.328,9.597-10.998,22.245-10.998c12.619,0,20.389,8.674,22.245,11
	C45.108,20.451,37.363,29.123,24.715,29.123"/>
<path d="M24.718,9.123c-4.963,0-9,4.037-9,9s4.037,9,9,9s9-4.037,9-9S29.681,9.123,24.718,9.123 M24.718,25.123
	c-3.859,0-7-3.141-7-7s3.141-7,7-7s7,3.141,7,7S28.577,25.123,24.718,25.123"/>
</svg>
