<?xml version="1.0" encoding="utf-8"?>
<!-- Generator: Adobe Illustrator 23.0.0, SVG Export Plug-In . SVG Version: 6.00 Build 0)  -->
<svg version="1.1" id="圖層_1" xmlns="http://www.w3.org/2000/svg" xmlns:xlink="http://www.w3.org/1999/xlink" x="0px" y="0px"
	 viewBox="0 0 49.43 36.245" style="enable-background:new 0 0 49.43 36.245;" xml:space="preserve">
<path d="M49.038,17.555c-0.349-0.508-8.747-12.432-24.323-12.432c-3.702,0-6.994,0.678-9.874,1.712L8.299,0.293
	c-0.391-0.391-1.023-0.391-1.414,0s-0.391,1.023,0,1.414l5.937,5.937c-7.936,3.528-12.185,9.552-12.431,9.91L0,18.123l0.392,0.566
	c0.349,0.508,8.747,12.434,24.323,12.434c3.702,0,6.994-0.678,9.873-1.712l6.542,6.542c0.195,0.195,0.451,0.293,0.707,0.293
	s0.512-0.098,0.707-0.293c0.391-0.391,0.391-1.023,0-1.414l-5.937-5.937c7.936-3.529,12.185-9.554,12.431-9.912l0.392-0.566
	L49.038,17.555z M24.715,29.123c-12.619,0-20.389-8.676-22.245-11.002c1.275-1.604,5.35-6.217,11.897-8.932l3.325,3.325
	c-1.232,1.54-1.974,3.488-1.974,5.609c0,4.963,4.037,9,9,9c2.121,0,4.069-0.742,5.609-1.974l2.663,2.663
	C30.524,28.611,27.766,29.123,24.715,29.123z M30.315,22.308l-9.783-9.783c1.169-0.877,2.616-1.403,4.186-1.403c3.859,0,7,3.141,7,7
	C31.718,19.693,31.191,21.139,30.315,22.308z M28.9,23.722c-1.169,0.875-2.614,1.401-4.182,1.401c-3.859,0-7-3.141-7-7
	c0-1.569,0.525-3.014,1.401-4.182L28.9,23.722z M35.062,27.057l-3.321-3.321c1.234-1.54,1.976-3.49,1.976-5.613c0-4.963-4.037-9-9-9
	c-2.123,0-4.072,0.743-5.613,1.976l-2.666-2.666c2.467-0.798,5.225-1.31,8.276-1.31c12.619,0,20.389,8.674,22.245,11
	C45.684,19.727,41.609,24.341,35.062,27.057z"/>
</svg>
