<?xml version="1.0" encoding="utf-8"?>
<!-- Generator: Adobe Illustrator 25.4.1, SVG Export Plug-In . SVG Version: 6.00 Build 0)  -->
<svg version="1.1" id="圖層_1" xmlns="http://www.w3.org/2000/svg" xmlns:xlink="http://www.w3.org/1999/xlink" x="0px" y="0px"
	 viewBox="0 0 115.107 115.107" style="enable-background:new 0 0 115.107 115.107;" xml:space="preserve">
<path d="M115.107,110.278L89.753,84.924c7.894-9.014,12.695-20.804,12.695-33.7C102.448,22.977,79.471,0,51.224,0S0,22.977,0,51.224
	c0,28.247,22.977,51.224,51.224,51.224c12.897,0,24.686-4.8,33.7-12.695l25.354,25.354L115.107,110.278z M51.224,95.618
	c-24.478,0-44.394-19.916-44.394-44.394C6.83,26.746,26.746,6.83,51.224,6.83s44.394,19.916,44.394,44.394
	C95.618,75.702,75.702,95.618,51.224,95.618z"/>
</svg>
