<?xml version="1.0" encoding="utf-8"?>
<!-- Generator: Adobe Illustrator 23.0.0, SVG Export Plug-In . SVG Version: 6.00 Build 0)  -->
<svg version="1.1" id="圖層_1" xmlns="http://www.w3.org/2000/svg" xmlns:xlink="http://www.w3.org/1999/xlink" x="0px" y="0px"
	 viewBox="0 0 48.189 48.189" style="enable-background:new 0 0 48.189 48.189;" xml:space="preserve">
<path d="M27.087,16.35c0-2.348-1.061-4.09-3.296-4.09c-1.551,0-2.991,0.985-4.126,2.462l-1.97-1.856
	c1.554-1.932,3.599-3.446,6.439-3.446c3.864,0,6.362,2.575,6.362,6.59c0,5.68-5.945,7.99-5.301,13.936h-3.105
	C21.33,23.356,27.087,20.932,27.087,16.35z M21.179,36.156c0-1.553,1.138-2.65,2.538-2.65c1.363,0,2.498,1.098,2.498,2.65
	c0,1.628-1.135,2.613-2.498,2.613C22.317,38.769,21.179,37.784,21.179,36.156z M24.094,0C10.787,0,0,10.787,0,24.094
	s10.787,24.094,24.094,24.094s24.094-10.787,24.094-24.094S37.402,0,24.094,0z"/>
</svg>
