<?xml version="1.0" encoding="utf-8"?>
<!-- Generator: Adobe Illustrator 26.0.2, SVG Export Plug-In . SVG Version: 6.00 Build 0)  -->
<svg version="1.1" id="圖層_1" xmlns="http://www.w3.org/2000/svg" xmlns:xlink="http://www.w3.org/1999/xlink" x="0px" y="0px"
	 viewBox="0 0 418 512" enable-background="new 0 0 418 512" xml:space="preserve">
<g id="Trash_can_bin">
	<path d="M400,64h-80V24c-0.015-13.249-10.751-23.985-24-24H120c-13.249,0.015-23.985,10.751-24,24v40H16
		C7.168,64.01,0.01,71.168,0,80v48c0.01,8.832,7.168,15.99,16,16h384c8.832-0.01,15.99-7.168,16-16V80
		C415.99,71.168,408.832,64.01,400,64z M112,24c0.004-4.417,3.583-7.996,8-8h176c4.417,0.004,7.996,3.583,8,8v40H112V24z M400,128
		H16V80h384V128z"/>
	<path d="M376.758,160.039c-4.341-0.465-8.238,2.677-8.703,7.019c-0.006,0.06-0.012,0.121-0.017,0.181L336.726,496H79.274
		L47.965,167.242c-0.418-4.399-4.324-7.626-8.722-7.207c-4.399,0.418-7.626,4.324-7.207,8.722l32,336
		C64.426,508.864,67.875,512,72,512h272c4.125,0,7.574-3.136,7.965-7.242l32-336c0.419-4.396-2.805-8.299-7.201-8.718
		C376.762,160.04,376.76,160.039,376.758,160.039z"/>
	<path d="M216,448V192c0-4.418-3.582-8-8-8s-8,3.582-8,8v256c0,4.418,3.582,8,8,8S216,452.418,216,448z"/>
	<path d="M280.008,456c4.221-0.004,7.712-3.287,7.976-7.5l16-256c0.28-4.405-3.065-8.203-7.47-8.483
		c-0.005,0-0.009-0.001-0.014-0.001c-4.388-0.216-8.149,3.103-8.48,7.484l-16,256c-0.277,4.406,3.069,8.202,7.475,8.479
		c0.003,0,0.006,0,0.009,0.001C279.672,455.992,279.84,456,280.008,456z"/>
	<path d="M135.992,456c0.168,0,0.336-0.008,0.508-0.016c4.406-0.272,7.757-4.065,7.485-8.471c0-0.003,0-0.006-0.001-0.009l-16-256
		c-0.318-4.407-4.148-7.722-8.555-7.404c-4.348,0.314-7.645,4.051-7.413,8.404l16,256C128.282,452.715,131.773,455.996,135.992,456
		L135.992,456z"/>
</g>
</svg>
