<?xml version="1.0" encoding="utf-8"?>
<!-- Generator: Adobe Illustrator 26.0.2, SVG Export Plug-In . SVG Version: 6.00 Build 0)  -->
<svg version="1.1" id="Layer_1" xmlns="http://www.w3.org/2000/svg" xmlns:xlink="http://www.w3.org/1999/xlink" x="0px" y="0px"
	 viewBox="0 0 756.929 705.945" enable-background="new 0 0 756.929 705.945" xml:space="preserve">
<path d="M401.362,9.559c-4.535-4.59-10.266-7.68-16.604-8.94c-0.246-0.048-0.495-0.091-0.756-0.13
	c-0.612-0.107-1.407-0.236-2.319-0.329C380.621,0.054,379.544,0,378.482,0c-1.062,0-2.143,0.054-3.218,0.161
	c-0.912,0.093-1.724,0.225-2.295,0.326c-0.274,0.04-0.542,0.086-0.792,0.137c-6.321,1.258-12.051,4.346-16.53,8.89L179.406,185.737
	c-6.077,6.077-9.423,14.154-9.423,22.744s3.347,16.668,9.423,22.743c6.076,6.076,14.153,9.423,22.743,9.423
	c8.59,0,16.667-3.347,22.743-9.423l121.426-121.411v427.476c0,17.736,14.429,32.166,32.166,32.166s32.166-14.43,32.166-32.166
	V109.822l121.39,121.402c6.076,6.076,14.153,9.423,22.743,9.423c8.589,0,16.667-3.347,22.743-9.423
	c6.076-6.075,9.423-14.153,9.423-22.743c0-8.591-3.347-16.668-9.422-22.742L401.362,9.559z"/>
<path d="M724.764,470.301c-17.736,0-32.166,14.429-32.166,32.165v139.148H64.331V502.466c0-17.736-14.429-32.165-32.166-32.165
	S0,484.729,0,502.466v171.313c0,17.736,14.429,32.166,32.166,32.166h692.598c17.736,0,32.166-14.43,32.166-32.166V502.466
	C756.929,484.729,742.5,470.301,724.764,470.301z"/>
</svg>
